
<?xml version="1.0" standalone="no"?>
<!DOCTYPE svg PUBLIC "-//W3C//DTD SVG 20010904//EN"
 "http://www.w3.org/TR/2001/REC-SVG-20010904/DTD/svg10.dtd">
<svg version="1.0" xmlns="http://www.w3.org/2000/svg"
 width="1280.000000pt" height="640.000000pt" viewBox="0 0 1280.000000 640.000000"
 preserveAspectRatio="xMidYMid meet">
<metadata>
Created by potrace 1.15, written by Peter Selinger 2001-2017
</metadata>
<g transform="translate(0.000000,640.000000) scale(0.100000,-0.100000)"
fill="#000000" stroke="none">
<path d="M6984 4334 c13 -75 14 -76 55 -69 37 6 38 5 114 -86 61 -72 76 -96
71 -113 -6 -20 -5 -20 12 -4 17 17 17 18 -2 40 -11 13 -48 55 -83 95 l-62 72
36 7 c20 3 38 4 41 2 17 -17 144 -193 144 -199 0 -5 -10 -14 -22 -20 -21 -11
-22 -11 -9 5 12 15 12 16 -5 10 -10 -4 -26 -13 -35 -21 -9 -7 -18 -11 -21 -8
-3 3 -35 -30 -71 -73 -60 -72 -69 -78 -96 -74 -28 4 -31 2 -31 -22 0 -21 -5
-26 -24 -26 -15 0 -33 -11 -46 -27 -21 -27 -24 -28 -153 -33 l-132 -5 0 -800
0 -800 312 -3 312 -2 19 62 18 63 13 -50 c35 -137 70 -182 163 -210 163 -48
314 105 264 268 -8 27 -23 59 -33 70 l-18 22 25 -22 c34 -29 121 -35 149 -9
16 15 16 11 -5 -30 -44 -87 -27 -174 46 -246 38 -37 59 -48 102 -57 135 -28
263 74 259 210 -1 48 -20 107 -44 139 -7 9 -2 5 11 -8 19 -20 33 -24 77 -24
44 0 58 4 77 24 13 13 18 17 11 8 -24 -32 -43 -91 -44 -139 -5 -184 215 -283
354 -160 76 66 97 166 53 253 -18 36 -20 43 -7 32 23 -21 41 -20 42 2 0 12 3
11 10 -6 5 -13 7 -28 4 -32 -3 -5 -1 -10 3 -12 5 -1 15 -30 23 -63 l15 -60
689 0 689 0 14 58 c8 31 18 57 23 57 5 0 9 -4 9 -8 0 -5 7 -17 16 -28 14 -17
15 -17 10 -1 -4 11 -2 16 5 12 6 -4 8 -13 6 -20 -9 -22 15 -108 41 -147 47
-71 139 -108 223 -88 66 16 133 76 156 141 17 47 19 49 56 49 27 0 39 -5 43
-17 35 -107 89 -159 184 -177 93 -16 207 56 232 147 12 46 13 47 53 47 39 0
41 -1 57 -48 37 -103 147 -167 246 -142 105 26 176 117 175 224 0 38 2 44 8
26 l7 -25 1 28 c2 47 16 30 35 -43 l18 -70 313 0 313 0 22 83 c43 164 37 152
94 170 69 22 142 69 167 109 29 47 22 116 -18 171 -17 23 -35 41 -40 40 -6 -1
-23 12 -39 30 l-29 32 33 -29 c17 -17 32 -25 32 -19 0 14 -120 112 -205 170
-33 22 -150 91 -260 153 -219 124 -640 370 -886 516 -209 124 -279 151 -459
174 -58 7 -651 10 -1892 10 l-1807 0 -7 24 c-3 15 -14 26 -27 28 -15 2 -21 11
-23 34 -2 27 9 43 86 119 l88 88 -74 98 c-41 54 -74 101 -74 104 0 3 6 5 13 5
7 0 23 13 34 29 l22 28 -77 7 c-42 3 -103 9 -136 13 l-59 6 7 -39z m2958 -624
c-9 -38 -17 -68 -20 -66 -2 3 2 30 8 62 10 46 10 58 -2 65 -9 6 -8 9 8 9 20 0
20 -1 6 -70z m238 61 c0 -13 -190 -885 -195 -896 -5 -9 -1 26 10 100 3 17 2
24 -1 18 -4 -9 -11 -10 -25 -2 -11 5 -24 7 -29 4 -6 -3 -11 2 -12 12 -1 10 -4
-13 -8 -52 -5 -57 -7 -47 -7 60 0 87 4 141 14 165 7 19 11 24 8 10 -4 -14 -8
-45 -11 -70 -2 -25 31 114 73 308 l76 352 54 0 c29 0 53 -4 53 -9z m585 -101
c235 -11 323 -27 425 -77 62 -31 71 -38 50 -41 -14 -2 -50 -11 -80 -20 -30 -9
-57 -17 -60 -17 -3 -1 -25 -7 -50 -14 -43 -13 -44 -12 -70 18 -28 35 -51 38
-122 17 -25 -8 -49 -12 -51 -9 -3 3 -1 17 4 31 14 37 4 52 -35 52 -19 0 -47 5
-61 12 -24 11 -29 9 -43 -9 -10 -12 -44 -42 -77 -66 -33 -24 -107 -91 -165
-147 l-104 -103 -86 -23 c-48 -13 -98 -28 -113 -33 -20 -8 -27 -7 -28 2 0 6
-7 -10 -15 -37 -9 -26 -12 -51 -9 -55 4 -3 140 -8 303 -11 l297 -6 -307 -2
c-241 -2 -308 1 -308 11 0 6 23 120 51 253 l52 240 71 21 c84 24 219 28 531
13z m-853 -30 c4 -8 6 -24 6 -35 0 -16 -1 -16 -7 4 -4 17 -15 -17 -36 -117
l-29 -141 -243 -3 c-217 -3 -244 -5 -260 -21 -16 -16 -18 -48 -23 -340 -4
-285 -7 -318 -19 -289 l-13 32 -1288 0 -1288 0 -6 -22 c-3 -13 -6 -31 -6 -41
0 -17 56 -18 1310 -15 l1310 3 0 -193 c0 -188 5 -225 34 -244 6 -4 -97 -8
-229 -8 l-240 0 -39 150 -40 150 -718 0 -717 0 -15 -52 c-9 -29 -28 -100 -44
-158 l-29 -105 -306 -3 -306 -2 -1 719 c0 395 2 725 5 732 4 12 256 14 1618
14 1423 0 1613 -2 1619 -15z m-13 -129 c-6 -34 -14 -60 -16 -57 -2 2 1 32 8
65 6 34 14 60 16 57 2 -2 -1 -32 -8 -65z m-22 -103 c-3 -7 -5 -2 -5 12 0 14 2
19 5 13 2 -7 2 -19 0 -25z m1698 -19 c80 -43 123 -74 115 -82 -38 -34 -222
-147 -240 -148 -14 -1 16 -7 65 -14 l90 -12 -98 -2 c-96 -1 -97 -1 -92 22 3
12 14 76 26 142 11 66 23 123 26 127 9 15 35 7 108 -33z m-1708 -31 c-3 -7 -5
-2 -5 12 0 14 2 19 5 13 2 -7 2 -19 0 -25z m1510 -40 c-3 -8 -6 -5 -6 6 -1 11
2 17 5 13 3 -3 4 -12 1 -19z m-1547 -29 c0 -5 -49 -240 -110 -521 -60 -281
-110 -512 -110 -514 0 -2 -47 -4 -104 -4 -82 0 -108 3 -120 16 -14 14 -16 74
-16 513 0 373 3 500 12 509 16 16 448 17 448 1z m1530 -56 c-11 -17 -11 -17
-6 0 3 10 7 26 7 35 1 15 2 15 6 0 2 -10 -1 -25 -7 -35z m-1413 15 c-3 -8 -6
-5 -6 6 -1 11 2 17 5 13 3 -3 4 -12 1 -19z m-110 -30 c-3 -7 -5 -2 -5 12 0 14
2 19 5 13 2 -7 2 -19 0 -25z m-27 -133 c-12 -59 -19 -109 -16 -113 3 -3 6 4 6
16 0 15 6 22 20 22 11 0 20 5 20 10 0 6 5 10 10 10 12 0 12 -213 0 -250 -7
-23 -8 -21 -9 11 -1 40 -22 57 -41 34 -6 -7 -10 -33 -8 -57 3 -38 6 -43 26
-42 13 0 21 -4 19 -10 -2 -6 -26 -113 -52 -238 l-49 -228 -59 0 c-52 0 -59 2
-55 18 3 9 49 223 103 474 55 252 101 456 103 454 2 -3 -6 -52 -18 -111z
m1563 52 c18 -4 17 -5 -5 -6 -24 -1 -28 3 -27 27 1 22 2 23 6 5 2 -13 13 -24
26 -26z m936 -89 c125 -71 301 -184 301 -193 0 -3 -589 -5 -1309 -5 l-1308 0
13 58 c7 31 20 92 29 135 l17 77 1065 0 1066 0 126 -72z m-2332 -220 c-3 -7
-5 -2 -5 12 0 14 2 19 5 13 2 -7 2 -19 0 -25z m-10 -40 c-3 -8 -6 -5 -6 6 -1
11 2 17 5 13 3 -3 4 -12 1 -19z m46 -35 c-7 -2 -21 -2 -30 0 -10 3 -4 5 12 5
17 0 24 -2 18 -5z m-56 -25 c-3 -8 -6 -5 -6 6 -1 11 2 17 5 13 3 -3 4 -12 1
-19z m2823 -68 c0 -6 -38 -9 -97 -8 l-98 2 95 6 c52 3 96 7 98 8 1 1 2 -2 2
-8z m10 -69 c0 -43 -86 -115 -168 -142 l-70 -22 -17 -66 c-9 -36 -23 -90 -31
-118 l-15 -53 -304 0 -304 0 -12 43 c-6 23 -26 96 -44 162 l-32 120 -733 0
-733 0 -41 -152 -41 -153 -189 0 -189 0 19 21 c16 17 20 43 25 148 3 69 12
151 18 181 l13 55 1424 0 1424 0 0 -24z m-5437 -218 l-6 -28 27 30 c27 30 27
30 10 2 -9 -15 -22 -43 -29 -63 l-12 -37 -5 30 c-4 29 8 93 17 93 3 0 2 -12
-2 -27z m3427 -100 c0 -16 6 -23 20 -23 11 0 20 6 20 13 0 8 3 8 9 -2 7 -11
10 -10 14 5 4 16 5 16 6 -3 1 -20 -4 -23 -39 -23 -36 0 -40 3 -40 24 0 13 -3
33 -6 43 -5 15 -4 15 5 3 6 -8 11 -25 11 -37z m590 -3 c0 -28 -2 -30 -40 -30
-31 0 -40 4 -40 18 0 13 2 14 9 4 13 -22 56 -11 59 16 5 32 12 27 12 -8z"/>
<path d="M10101 3274 c0 -11 3 -14 6 -6 3 7 2 16 -1 19 -3 4 -6 -2 -5 -13z"/>
<path d="M6700 3297 c0 -13 6 -31 13 -40 11 -17 88 -17 1295 -11 l1283 7 15
28 c8 15 14 30 14 34 0 3 -589 5 -1310 5 l-1310 0 0 -23z"/>
<path d="M6724 3189 c3 -17 6 -35 6 -40 0 -5 533 -9 1228 -9 l1228 0 39 40 39
40 -1273 0 -1273 0 6 -31z"/>
<path d="M6730 2814 c-15 -38 -12 -51 13 -58 36 -9 2517 -7 2517 3 0 5 -18 25
-40 45 l-40 36 -1220 0 -1220 0 -10 -26z"/>
<path d="M6499 3805 c-3 -3 -1462 -5 -3242 -5 l-3237 0 0 -790 0 -790 359 0
c387 0 371 -2 371 51 0 10 5 19 10 19 6 0 10 12 11 28 0 28 17 77 18 54 1 -7
6 -10 11 -7 12 8 13 0 1 -23 -33 -64 -34 -70 -22 -118 25 -98 76 -156 159
-180 100 -30 201 16 248 113 36 73 30 154 -16 222 l-31 46 30 -34 c27 -30 36
-34 83 -35 45 -1 57 3 76 24 l23 25 -20 -35 c-75 -132 -19 -283 119 -324 132
-39 258 45 276 186 6 47 -14 117 -44 153 -15 18 -14 18 8 -2 34 -29 121 -35
149 -9 16 15 16 11 -5 -30 -84 -165 75 -352 254 -299 132 40 191 181 128 309
-24 48 -24 50 -3 24 26 -32 37 -35 38 -10 1 25 26 -49 40 -118 l12 -60 830 2
831 3 8 35 c5 19 12 42 17 50 5 9 12 36 16 60 4 25 10 39 12 32 4 -10 8 -10
21 0 13 11 14 10 5 -7 -43 -84 -46 -94 -34 -142 25 -97 76 -155 159 -179 126
-37 256 50 269 179 6 64 -9 126 -43 169 l-26 33 32 -34 c28 -30 39 -34 84 -35
42 -1 55 3 74 24 21 24 21 23 -3 -21 -48 -89 -28 -211 46 -274 39 -32 123 -57
169 -49 157 29 238 205 153 332 l-25 37 25 -24 c34 -31 116 -34 148 -5 l21 19
-21 -36 c-51 -87 -36 -188 39 -261 177 -171 446 32 337 255 l-26 52 24 -30 24
-29 9 24 9 24 7 -28 c4 -15 4 -37 1 -49 -4 -15 -4 -18 3 -9 7 10 14 -7 27 -57
l17 -71 469 0 c368 0 469 3 469 13 0 6 5 4 11 -5 10 -19 78 -25 127 -12 l22 6
-2 812 -3 811 -65 3 c-36 2 -68 0 -71 -3z m-3238 -25 c1759 0 3199 -3 3199 -7
0 -5 -1443 -8 -3207 -8 l-3208 0 -3 -48 c-3 -43 -1 -48 23 -57 37 -14 6349
-14 6376 0 19 11 19 -1 19 -730 l0 -740 -455 0 -455 0 -5 23 c-3 12 -20 83
-38 157 l-33 135 -719 0 -720 0 -40 -150 -41 -150 -821 -3 -820 -2 -35 152
-35 153 -719 0 -719 0 -23 -85 c-13 -47 -31 -109 -39 -137 l-14 -53 -350 0
-349 0 0 781 c0 708 1 781 16 775 9 -3 1455 -6 3215 -6z"/>
<path d="M1133 3415 c-13 -9 -28 -34 -34 -55 l-12 -40 -194 0 c-106 0 -193 4
-193 8 0 5 -9 18 -20 30 -20 21 -26 22 -270 22 -237 0 -251 -1 -270 -20 -19
-19 -20 -33 -20 -550 0 -517 1 -531 20 -550 19 -19 33 -20 268 -20 319 0 292
-21 292 228 l0 182 2490 0 2490 0 0 -190 c0 -204 6 -234 49 -247 14 -4 130 -8
258 -8 303 0 276 -23 283 248 l5 203 50 3 c28 1 52 5 55 7 2 3 -3 17 -12 32
-13 21 -26 28 -57 30 -48 4 -56 22 -9 22 l32 0 -32 33 -32 33 0 169 0 169 27
28 c29 30 27 38 -6 41 -11 1 -21 7 -21 14 0 9 15 13 43 13 37 0 46 4 55 25 19
42 15 45 -50 45 -36 1 -74 7 -88 15 -38 22 -469 21 -514 0 -26 -12 -67 -15
-206 -13 l-174 3 -7 29 c-5 16 -18 39 -30 52 -22 23 -28 24 -169 24 -166 0
-183 -6 -200 -71 -10 -37 -13 -40 -42 -37 -25 2 -33 9 -39 32 -5 16 -18 39
-30 52 -22 23 -28 24 -170 24 -166 0 -185 -7 -198 -70 -6 -31 -10 -35 -40 -35
-29 0 -34 4 -47 40 -21 62 -30 65 -194 65 -164 0 -173 -3 -194 -65 -13 -36
-18 -40 -47 -40 -30 0 -34 4 -40 35 -13 63 -32 70 -198 70 -142 0 -148 -1
-170 -24 -12 -13 -25 -36 -30 -52 -6 -23 -14 -30 -39 -32 -29 -3 -32 0 -42 37
-17 65 -34 71 -200 71 -141 0 -147 -1 -169 -24 -12 -13 -25 -36 -30 -52 -6
-23 -14 -30 -37 -32 -28 -3 -32 1 -43 37 -19 65 -35 71 -201 71 -141 0 -147
-1 -169 -24 -12 -13 -25 -36 -30 -52 -6 -23 -14 -30 -37 -32 -28 -3 -32 1 -43
37 -19 65 -35 71 -197 71 -161 0 -187 -10 -200 -75 -6 -31 -10 -35 -39 -35
-28 0 -33 4 -39 30 -3 17 -17 42 -30 55 -24 24 -29 25 -171 25 -142 0 -147 -1
-171 -25 -13 -13 -27 -38 -30 -55 -6 -26 -11 -30 -39 -30 -29 0 -33 4 -39 32
-3 18 -16 42 -28 55 -21 22 -28 23 -168 23 -115 0 -150 -3 -167 -15z m-513
-85 c10 -6 -60 -10 -208 -10 -146 0 -221 3 -217 10 8 13 405 13 425 0z m30
-95 c0 -13 -34 -15 -245 -15 -154 0 -245 4 -245 10 0 6 92 11 243 13 133 1
243 3 245 5 1 1 2 -5 2 -13z m1870 -1 c3 -5 -10 -10 -27 -12 -22 -2 -33 1 -33
10 0 15 52 17 60 2z m480 0 c3 -5 -10 -10 -27 -12 -22 -2 -33 1 -33 10 0 15
52 17 60 2z m480 0 c3 -5 -10 -10 -27 -12 -22 -2 -33 1 -33 10 0 15 52 17 60
2z m480 -1 c0 -8 -12 -13 -30 -13 -18 0 -30 5 -30 13 0 8 12 13 30 13 18 0 30
-5 30 -13z m480 2 c0 -10 -10 -15 -30 -15 -20 0 -30 5 -30 15 0 10 10 15 30
15 20 0 30 -5 30 -15z m480 -1 c0 -11 -8 -14 -32 -10 -18 2 -34 5 -36 5 -2 1
0 6 3 11 10 17 65 12 65 -6z m760 1 c0 -14 -23 -16 -170 -15 -156 2 -190 6
-173 24 3 3 82 6 175 6 144 0 168 -2 168 -15z m540 0 c0 -13 -34 -15 -245 -15
-211 0 -245 2 -245 15 0 13 34 15 245 15 211 0 245 -2 245 -15z m-5130 -5 c0
-6 -72 -10 -195 -10 -123 0 -195 4 -195 10 0 6 72 10 195 10 123 0 195 -4 195
-10z m480 0 c0 -5 -16 -10 -35 -10 -19 0 -35 5 -35 10 0 6 16 10 35 10 19 0
35 -4 35 -10z m480 0 c0 -5 -16 -10 -35 -10 -19 0 -35 5 -35 10 0 6 16 10 35
10 19 0 35 -4 35 -10z m-1400 -246 l0 -156 -20 23 c-19 23 -21 23 -34 7 -12
-16 -35 -18 -225 -18 l-211 0 0 143 c0 79 3 147 7 150 3 4 114 7 245 7 l238 0
0 -156z m442 47 c3 -100 5 -112 27 -135 24 -26 26 -26 183 -26 l158 0 20 33
c16 26 20 50 20 135 l0 102 35 0 35 0 0 -100 c0 -105 13 -151 45 -164 22 -8
298 -8 320 0 32 13 45 59 45 164 l0 100 35 0 35 0 0 -102 c0 -85 4 -109 20
-135 l20 -33 158 0 c157 0 159 0 183 26 22 23 24 35 27 135 l4 109 34 0 34 0
0 -102 c0 -85 4 -109 20 -135 l20 -33 158 0 c157 0 159 0 183 26 21 23 24 36
27 135 l4 109 33 0 33 0 4 -114 c4 -162 -2 -157 201 -154 l160 3 21 28 c17 23
21 46 24 133 l4 105 32 -3 31 -3 5 -112 c7 -159 1 -154 203 -151 l160 3 21 28
c17 23 21 46 24 133 l4 105 32 -3 31 -3 5 -112 c7 -158 1 -153 200 -153 199 0
193 -5 200 153 l5 112 31 3 32 3 4 -105 c3 -87 7 -110 24 -133 l21 -28 160 -3
c202 -3 196 -8 203 151 l5 112 31 3 32 3 4 -105 c3 -87 7 -110 24 -133 l21
-28 162 -3 161 -2 20 32 c16 27 20 51 20 136 l0 102 175 0 175 0 0 -150 0
-150 -2490 0 -2490 0 0 150 0 150 194 0 194 0 4 -109z m5128 -41 l0 -149 -245
-3 -245 -3 0 153 0 152 245 0 245 0 0 -150z m-5570 -247 c0 -10 -55 -13 -239
-13 -221 0 -263 4 -243 25 4 4 114 5 244 3 182 -2 238 -6 238 -15z m5030 -3
c0 -7 -837 -10 -2490 -10 -1653 0 -2490 3 -2490 10 0 7 837 10 2490 10 1653 0
2490 -3 2490 -10z m470 0 c0 -6 -77 -10 -210 -10 -133 0 -210 4 -210 10 0 6
77 10 210 10 133 0 210 -4 210 -10z m70 0 c0 -5 -4 -10 -10 -10 -5 0 -10 5
-10 10 0 6 5 10 10 10 6 0 10 -4 10 -10z m-5570 -260 c0 -219 21 -202 -254
-198 -151 2 -208 6 -218 16 -9 9 -14 60 -16 182 l-3 170 245 0 246 0 0 -170z
m5570 -12 c0 -155 -2 -184 -17 -200 -15 -16 -35 -18 -229 -18 -180 0 -215 2
-228 16 -13 13 -16 46 -16 200 l0 184 245 0 245 0 0 -182z"/>
<path d="M8821 2294 c0 -11 3 -14 6 -6 3 7 2 16 -1 19 -3 4 -6 -2 -5 -13z"/>
</g>
</svg>
